<svg width="24" height="25" viewBox="0 0 24 25" fill="none" xmlns="http://www.w3.org/2000/svg">
<path d="M15.5522 18.2456C15.5521 17.592 15.3482 16.9256 14.8408 16.4215C14.3349 15.9187 13.6693 15.7184 13.0198 15.7165C12.5742 15.715 12.1273 15.7155 11.6834 15.716C11.4629 15.7162 11.243 15.7165 11.0245 15.7165C10.3763 15.7165 9.68204 15.8929 9.15196 16.419C8.62092 16.9461 8.4406 17.6395 8.43893 18.2876V18.2909C8.43893 18.771 8.43843 19.2523 8.43794 19.7343C8.43674 20.9035 8.43553 22.077 8.44136 23.2495H5.05061C5.00729 23.2394 4.96096 23.231 4.91181 23.2251C4.41035 23.1617 3.79652 22.6508 3.80772 21.7831C3.82983 20.1803 3.82517 18.5705 3.82055 16.9728C3.81863 16.3112 3.81672 15.6516 3.81672 14.9954V14.9949V14.9944V14.9938V14.9933V14.9928V14.9922V14.9917V14.9912V14.9906V14.9901V14.9896V14.989V14.9885V14.988V14.9874V14.9869V14.9864V14.9858V14.9853V14.9848V14.9842V14.9837V14.9832V14.9826V14.9821V14.9816V14.981V14.9805V14.98V14.9795V14.9789V14.9784V14.9779V14.9773V14.9768V14.9763V14.9757V14.9752V14.9747V14.9741V14.9736V14.9731V14.9725V14.972V14.9715V14.9709V14.9704V14.9699V14.9694V14.9688V14.9683V14.9678V14.9672V14.9667V14.9662V14.9656V14.9651V14.9646V14.9641V14.9635V14.963V14.9625V14.9619V14.9614V14.9609V14.9603V14.9598V14.9593V14.9588V14.9582V14.9577V14.9572V14.9566V14.9561V14.9556V14.9551V14.9545V14.954V14.9535V14.9529V14.9524V14.9519V14.9514V14.9508V14.9503V14.9498V14.9493V14.9487V14.9482V14.9477V14.9471V14.9466V14.9461V14.9456V14.945V14.9445V14.944V14.9435V14.9429V14.9424V14.9419V14.9414V14.9408V14.9403V14.9398V14.9393V14.9387V14.9382V14.9377V14.9372V14.9366V14.9361V14.9356V14.9351V14.9345V14.934V14.9335V14.933V14.9324V14.9319V14.9314V14.9309V14.9303V14.9298V14.9293V14.9288V14.9283V14.9277V14.9272V14.9267V14.9262V14.9256V14.9251V14.9246V14.9241V14.9236V14.923V14.9225V14.922V14.9215V14.921V14.9204V14.9199V14.9194V14.9189V14.9184V14.9178V14.9173V14.9168V14.9163V14.9158V14.9152V14.9147V14.9142V14.9137V14.9132V14.9126V14.9121V14.9116V14.9111V14.9106V14.91V14.9095V14.909V14.9085V14.908V14.9075V14.9069V14.9064V14.9059V14.9054V14.9049V14.9044V14.9038V14.9033V14.9028V14.9023V14.9018V14.9013V14.9008V14.9002V14.8997V14.8992V14.8987V14.8982V14.8977V14.8972V14.8966V14.8961V14.8956V14.8951V14.8946V14.8941V14.8936V14.893V14.8925V14.892V14.8915V14.891V14.8905V14.89V14.8895V14.889V14.8884V14.8879V14.8874V14.8869V14.8864V14.8859V14.8854V14.8849V14.8844V14.8838V14.8833V14.8828V14.8823V14.8818V14.8813V14.8808V14.8803V14.8798V14.8793V14.8788V14.8783V14.8777V14.8772V14.8767V14.8762V14.8757V14.8752V14.8747V14.8742V14.8737V14.8732V14.8727V14.8722V14.8717V14.8712V14.8707V14.8702V14.8697V14.8692V14.8686V14.8681V14.8676V14.8671V14.8666V14.8661V14.8656V14.8651V14.8646V14.8641V14.8636V14.8631V14.8626V14.8621V14.8616V14.8611V14.8606V14.8601V14.8596V14.8591V14.8586V14.8581V14.8576V14.8571V14.8566V14.8561V14.8556V14.8551V14.8546V14.8541V14.8536V14.8531V14.8526V14.8521V14.8516V14.8511V14.8506V14.8501V14.8496V14.8491V14.8487V14.8482V14.8477V14.8472V14.8467V14.8462V14.8457V14.8452V14.8447V14.8442V14.8437V14.8432V14.8427V14.8422V14.8417V14.8412V14.8408V14.8403V14.8398V14.8393V14.8388V14.8383V14.8378V14.8373V14.8368V14.8363V14.8358V14.8354V14.8349V14.8344V14.8339V14.8334V14.8329V14.8324V14.8319V14.8314V14.831V14.8305V14.83V14.8295V14.829V14.8285V14.828V14.8276V14.8271V14.8266V14.8261V14.8256V14.8251V14.8246V14.8242V14.8237V14.8232V14.8227V14.8222V14.8217V14.8213V14.8208V14.8203V14.8198V14.8193V14.8189V14.8184V14.8179V14.8174V14.8169V14.8165V14.816V14.8155V14.815V14.8145V14.8141V14.8136V14.8131V14.8126V14.8121V14.8117V14.8112V14.8107V14.8102V14.8098V14.8093V14.8088V14.8083V14.8079V14.8074V14.8069V14.8064V14.806V14.8055V14.805V14.8045V14.8041V14.8036V14.8031V14.8026V14.8022V14.8017V14.8012V14.8008V14.8003V14.7998V14.7994V14.7989V14.7984V14.7979V14.7975V14.797V14.7965V14.7961V14.7956V14.7951V14.7947V14.7942V14.7937V14.7933V14.7928V14.7923V14.7919V14.7914V14.7909V14.7905V14.79V14.7895V14.7891V14.7886V14.7882V14.7877V14.7872V14.7868V14.7863V14.7858V14.7854V14.7849V14.7845V14.784V14.7835V14.7831V14.7826V14.7822V14.7817V14.7812V14.7808V14.7803V14.7799V14.7794V14.7789V14.7785V14.778V14.7776V14.7771V14.7767V14.7762V14.7758V14.7753V14.7748V14.7744V14.7739V14.7735V14.773V14.7726V14.7721V14.7717V14.7712V14.7708V14.7703V14.7699V14.7694V14.769V14.7685V14.7681V14.7676V14.7672V14.7667V14.7663V14.7658V14.7654V14.7649V14.7645V14.764V14.7636V14.7631V14.7627V14.7622V14.7618V14.7614V14.7609V14.7605V14.76V14.7596V14.7591V14.7587V14.7583V14.7578V14.7574V14.7569V14.7565V14.756V14.7556V14.7552V14.7547V14.7543V14.7538V14.7534V14.753V14.7525V14.7521V14.7517V14.7512V14.7508V14.7503V14.7499V14.7495V14.749V14.7486V14.7482V14.7477V14.7473V14.7469V14.7464V14.746V14.7456V14.7451V14.7447V14.7443V14.7438V14.7434V14.743V14.7425V14.7421V13.6323L2.71468 13.5009C2.58212 13.4851 2.42542 13.4721 2.31038 13.4626C2.26532 13.4589 2.22665 13.4557 2.19833 13.453C2.06354 13.4405 1.99495 13.429 1.95055 13.4175C1.26878 13.2372 0.962388 12.3882 1.58284 11.765C4.80412 8.53943 8.03222 5.31589 11.2608 2.09413L11.2617 2.09321C11.3552 1.99971 11.434 1.93665 11.4953 1.898L11.4975 1.89663C11.8531 1.67155 12.3173 1.67662 12.7628 2.1221L12.7631 2.12242C13.6461 3.00468 14.5291 3.88781 15.4125 4.77124C17.6222 6.9811 19.8337 9.19276 22.0492 11.3971C22.4967 11.8425 22.6822 12.0922 22.75 12.3481V12.5546C22.7493 12.5565 22.7486 12.5585 22.7479 12.5604L22.7474 12.5616C22.7207 12.6336 22.6976 12.6955 22.6746 12.7551C22.6285 12.8745 22.5921 12.9594 22.5569 13.0281C22.4963 13.1466 22.444 13.2094 22.3652 13.268L22.3618 13.2705C22.199 13.3925 21.9815 13.4566 21.4245 13.4566H20.1745V14.7066C20.1745 15.3841 20.1749 16.0607 20.1754 16.7367C20.1764 18.0864 20.1774 19.434 20.1745 20.7831L20.1775 21.2256C20.181 21.5101 20.1837 21.7315 20.1614 21.9725C20.1333 22.2768 20.0702 22.4739 19.968 22.6321C19.7903 22.9064 19.5261 23.0877 18.9888 23.2495H15.5498C15.5572 21.8025 15.5552 20.3559 15.5531 18.9141C15.5528 18.6911 15.5525 18.4683 15.5522 18.2456ZM15.5522 18.2456C15.5522 18.2459 15.5522 18.2462 15.5522 18.2464H14.3022M15.5522 18.2456C15.5522 18.2454 15.5522 18.2451 15.5522 18.2449L14.3022 18.2464M14.3022 18.2464C14.3022 17.4487 13.8178 16.9687 13.0156 16.9665L14.3022 18.2464ZM15.549 23.6497C15.5482 23.6445 15.5458 23.632 15.5399 23.6139L15.1901 23.6118L14.8578 24.4995M15.549 23.6497L14.8578 23.6091L14.2978 23.6062M15.549 23.6497C15.5492 23.6516 15.5494 23.6525 15.5494 23.6525L15.549 23.6497ZM14.8578 24.4995V23.6097L14.2978 23.6062M14.8578 24.4995C14.4422 24.344 14.2956 24.0395 14.2978 23.6062M14.8578 24.4995H17.9211L14.2978 23.6062M15.1905 23.6108L15.296 23.3288C15.295 23.3285 15.3263 23.3401 15.3711 23.3756C15.4183 23.413 15.4632 23.4633 15.4977 23.5218C15.5192 23.5583 15.532 23.5897 15.5395 23.6126L15.1905 23.6108ZM8.44164 23.6527C8.44162 23.6527 8.44172 23.6517 8.44201 23.65L8.44164 23.6527Z" stroke="#CC66BC" stroke-width="2.5"/>
</svg>
